# xmcd
#
# Track frame offsets:
#	150
#	15300
#	27952
#	39291
#	53595
#	63761
#	78411
#	95097
#	106285
#	127697
#	137348
#	148673
#	166356
#	178203
#	191042
#	204583
#	217015
#	227917
#	238848
#	251636
#
# Disc length: 3516 seconds
#
# Revision: 0
# Processed by: cddbd v1.4PL0 Copyright (c) Steve Scherf et al.
# Submitted via: dBpowerAMP V4.0
#
DISCID=110dba14
DTITLE=Tommy Hunter - Still Making Memories Timeless Country Treasures Volume 3
DYEAR=1900
DGENRE=
TTITLE0=Man Of '87
TTITLE1=Ribbon Of Darkness
TTITLE2=Pass Me By
TTITLE3=Making Believe
TTITLE4=Honky Tonk Man
TTITLE5=Don't You Ever Get Tired Of Hurting Me
TTITLE6=Marianne Regrets
TTITLE7=Busted
TTITLE8=City Of New Orleans
TTITLE9=I Love
TTITLE10=Walk On By
TTITLE11=Only Love Sets You Free
TTITLE12=Got No Reason Now For Going Home
TTITLE13=I Love You Because
TTITLE14=Too Old To Die Young
TTITLE15=Making Plans
TTITLE16=Company's Coming
TTITLE17=Backward Glances Down A Country Road
TTITLE18=Cryin' My Heart Out Over You
TTITLE19=What's Wrong With The Way That We're Doing It Now
EXTD=
EXTT0=
EXTT1=
EXTT2=
EXTT3=
EXTT4=
EXTT5=
EXTT6=
EXTT7=
EXTT8=
EXTT9=
EXTT10=
EXTT11=
EXTT12=
EXTT13=
EXTT14=
EXTT15=
EXTT16=
EXTT17=
EXTT18=
EXTT19=
PLAYORDER=
